<svg xmlns="http://www.w3.org/2000/svg" viewBox="0 0 64 64">
  <rect width="64" height="64" rx="8" fill="#2D3B2C"/>
  <circle cx="32" cy="28" r="8" fill="none" stroke="#C9846E" stroke-width="2"/>
  <circle cx="32" cy="28" r="4" fill="#C9846E"/>
  <ellipse cx="22" cy="28" rx="5" ry="3" fill="none" stroke="#C9846E" stroke-width="1.5" transform="rotate(-20 22 28)"/>
  <ellipse cx="42" cy="28" rx="5" ry="3" fill="none" stroke="#C9846E" stroke-width="1.5" transform="rotate(20 42 28)"/>
  <ellipse cx="32" cy="18" rx="5" ry="3" fill="none" stroke="#C9846E" stroke-width="1.5" transform="rotate(0 32 18)"/>
  <ellipse cx="25" cy="20" rx="5" ry="3" fill="none" stroke="#C9846E" stroke-width="1.5" transform="rotate(-40 25 20)"/>
  <ellipse cx="39" cy="20" rx="5" ry="3" fill="none" stroke="#C9846E" stroke-width="1.5" transform="rotate(40 39 20)"/>
  <line x1="32" y1="36" x2="32" y2="50" stroke="#4A5240" stroke-width="2"/>
  <ellipse cx="26" cy="46" rx="6" ry="3" fill="#4A5240" transform="rotate(-30 26 46)"/>
  <ellipse cx="38" cy="43" rx="5" ry="2.5" fill="#4A5240" transform="rotate(30 38 43)"/>
</svg>
